{"title":"12 Monkeys S02E07 Meltdown 1080P WEB-DL DD5 1 H 264 seeders: 1le","uid":14744165,"size":1772026492,"categoryP":"video","categoryS":"hd___tv_shows","magnet":"?xt=urn:btih:06f7f2e88a334085f3a9c9b688bf00019ffae80c&amp;dn=12+Monkeys+S02E07+Meltdown+1080P+WEB-DL+DD5+1+H+264+seeders%3A+1le&amp;tr=udp%3A%2F%2Ftracker.leechers-paradise.org%3A6969&amp;tr=udp%3A%2F%2Fzer0day.ch%3A1337&amp;tr=udp%3A%2F%2Fopen.demonii.com%3A1337&amp;tr=udp%3A%2F%2Ftracker.coppersurfer.tk%3A6969&amp;tr=udp%3A%2F%2Fexodus.desync.com%3A6969","seeders":6,"leechers":1,"uploader":"jmanwf","files":1,"time":1464707709,"description":"Description\r\nCole comes face to face with the Witness, the phantom behind the Army of the 12 Monkeys as Cassie’s (Amanda Schull) hallucinations undergo a chilling evolution. Making matters worse, the Temporal Facility becomes increasingly dangerous after the malfunctioning time machine begins to tear apart time and space, bringing back deadly visitors from the past.\r\n\r\n\r\n\r\nVideo\r\nID : 2\r\nFormat : AVC\r\nFormat/Info : Advanced Video Codec\r\nFormat profile :   \r\nFormat settings, CABAC : Yes\r\nFormat settings, ReFrames : 4 frames\r\nCodec ID : V_MPEG4/ISO/AVC\r\nDuration : 43mn 1s\r\nBit rate : 4 978 Kbps\r\nWidth : 1 920 pixels\r\nHeight : 1 080 pixels\r\nDisplay aspect ratio : 16:9\r\nFrame rate mode : Constant\r\nFrame rate : 23.976 (24000/1001) fps\r\nColor space : YUV\r\nChroma subsampling : 4:2:0\r\nBit depth : 8 bits\r\nScan type : Progressive\r\nBits/(Pixel*Frame) : 0.100\r\nStream size : 1.50 GiB (91%)\r\nLanguage : English\r\nDefault : Yes\r\nForced : No\r\nColor range : Limited\r\nColor primaries : BT.709\r\nTransfer characteristics : BT.709\r\nMatrix coefficients : BT.709\r\n\r\nAudio #1\r\nID : 1\r\nFormat : AAC\r\nFormat/Info : Advanced Audio Codec\r\nFormat profile : LC\r\nCodec ID : A_AAC\r\nDuration : 43mn 1s\r\nBit rate : 126 Kbps\r\nChannel(s) : 2 channels\r\nChannel positions : Front: L R\r\nSampling rate : 48.0 KHz\r\nFrame rate : 46.875 fps (1024 spf)\r\nCompression mode : Lossy\r\nStream size : 38.8 MiB (2%)\r\nLanguage : English\r\nDefault : Yes\r\nForced : No\r\n\r\nAudio #2\r\nID : 3\r\nFormat : AC-3\r\nFormat/Info : Audio Coding 3\r\nMode extension : CM (complete main)\r\nFormat settings, Endianness : Big\r\nCodec ID : A_AC3\r\nDuration : 43mn 1s\r\nBit rate mode : Constant\r\nBit rate : 384 Kbps\r\nChannel(s) : 6 channels\r\nChannel positions : Front: L C R, Side: L R, LFE\r\nSampling rate : 48.0 KHz\r\nFrame rate : 31.250 fps (1536 spf)\r\nCompression mode : Lossy\r\nStream size : 118 MiB (7%)\r\nLanguage : English\r\nDefault : No\r\nForced : No\r\n\r\nText\r\nID : 4\r\nFormat : UTF-8\r\nCodec ID : S_TEXT/UTF8\r\nCodec ID/Info : UTF-8 Plain Text\r\nDuration : 42mn 42s\r\nBit rate : 100 bps\r\nCount of elements : 881\r\nStream size : 31.5 KiB (0%)\r\nLanguage : English\r\nDefault : Yes\r\nForced : No","torrent":{"xt":"urn:btih:06f7f2e88a334085f3a9c9b688bf00019ffae80c","amp;dn":"12+Monkeys+S02E07+Meltdown+1080P+WEB-DL+DD5+1+H+264+seeders%3A+1le","amp;tr":["udp%3A%2F%2Ftracker.leechers-paradise.org%3A6969","udp%3A%2F%2Fzer0day.ch%3A1337","udp%3A%2F%2Fopen.demonii.com%3A1337","udp%3A%2F%2Ftracker.coppersurfer.tk%3A6969","udp%3A%2F%2Fexodus.desync.com%3A6969"],"infoHash":"06f7f2e88a334085f3a9c9b688bf00019ffae80c","infoHashBuffer":{"type":"Buffer","data":[6,247,242,232,138,51,64,133,243,169,201,182,136,191,0,1,159,250,232,12]},"announce":[],"urlList":[]}}